<svg xmlns="http://www.w3.org/2000/svg" viewBox="0 0 391.78 163.05"><defs><style>.cls-1{fill:#2d3a96;}.cls-2{fill:#fff;}</style></defs><g id="Layer_2" data-name="Layer 2"><g id="Layer_1-2" data-name="Layer 1"><path class="cls-1" d="M151.71,47.7h9.37V81.81h18V90.7H151.71Z"/><path class="cls-1" d="M212.37,83.56a16.35,16.35,0,0,1-5.67,5.94,16,16,0,0,1-8.5,2.16,16.83,16.83,0,0,1-6.34-1.17,15.61,15.61,0,0,1-5.08-3.27,14.82,14.82,0,0,1-3.36-5,16,16,0,0,1-1.2-6.27,15.55,15.55,0,0,1,4.53-11,16.47,16.47,0,0,1,5-3.4A15.2,15.2,0,0,1,198,60.31a16.2,16.2,0,0,1,6.45,1.2,13.3,13.3,0,0,1,4.66,3.28,14,14,0,0,1,2.82,4.86,18.28,18.28,0,0,1,1,6q0,.48,0,1a8.34,8.34,0,0,1-.09.84,5.54,5.54,0,0,0-.06.78H191a6.5,6.5,0,0,0,2.7,4.21,8.22,8.22,0,0,0,4.57,1.32,7.47,7.47,0,0,0,4.17-1.08A8.13,8.13,0,0,0,205,79.89Zm-8-11.48a5.14,5.14,0,0,0-.57-1.56A5.3,5.3,0,0,0,202.55,69a6.77,6.77,0,0,0-2-1.14A7.22,7.22,0,0,0,198,67.4a6.89,6.89,0,0,0-6.55,4.68Z"/><path class="cls-1" d="M220.24,68.84h-5.17V61.27h5.17v-9h9v9h7.27v7.57h-7.27V79.1a6.64,6.64,0,0,0,.24,1.83,3,3,0,0,0,.84,1.4,3.36,3.36,0,0,0,2.34.81,4.77,4.77,0,0,0,1.62-.24,4.38,4.38,0,0,0,1.14-.6L238,90.1a17.56,17.56,0,0,1-3.37,1.14,16.86,16.86,0,0,1-3.84.42,10,10,0,0,1-7.51-2.82A9.92,9.92,0,0,1,221,85.19a14.19,14.19,0,0,1-.78-4.81Z"/><path class="cls-1" d="M242.22,62.47l3.12-4.74a5.35,5.35,0,0,1-2.4-2.07,5.74,5.74,0,0,1-.9-3.16,5.77,5.77,0,1,1,11.53,0,5.28,5.28,0,0,1-.33,1.93,9.05,9.05,0,0,1-1.05,1.86l-5.95,8.83Z"/><path class="cls-1" d="M269,91.66a18.51,18.51,0,0,1-5.41-.72,14.87,14.87,0,0,1-4.05-1.89,11.87,11.87,0,0,1-2.85-2.7,13.06,13.06,0,0,1-1.75-3.09L263,79.83a6,6,0,0,0,2.35,3,6.7,6.7,0,0,0,3.6.93,5.64,5.64,0,0,0,2.79-.57,1.68,1.68,0,0,0,1-1.48,1.77,1.77,0,0,0-1-1.59,11.26,11.26,0,0,0-3.06-1l-4-.84a14.81,14.81,0,0,1-2.94-1A11.07,11.07,0,0,1,259,75.51a8.7,8.7,0,0,1-2-2.55,7.19,7.19,0,0,1-.78-3.4,7.84,7.84,0,0,1,.93-3.81,9,9,0,0,1,2.55-2.92A12.25,12.25,0,0,1,263.48,61a17.07,17.07,0,0,1,4.87-.66,18,18,0,0,1,7.87,1.59,10.42,10.42,0,0,1,5,5.32l-7.75,3.18a5,5,0,0,0-2.19-2.28,6.21,6.21,0,0,0-2.85-.72,5.12,5.12,0,0,0-2.52.54,1.4,1.4,0,0,0,0,2.67,11.35,11.35,0,0,0,2.43.87l4.56,1.09a13.06,13.06,0,0,1,6.73,3.48,8,8,0,0,1,2.22,5.64,8.14,8.14,0,0,1-.93,3.79,9.94,9.94,0,0,1-2.64,3.18,13.19,13.19,0,0,1-4.09,2.19A16.15,16.15,0,0,1,269,91.66Z"/><path class="cls-1" d="M320.18,66.8h21.2a17.15,17.15,0,0,1,.33,1.86,16.59,16.59,0,0,1,.15,2.16,23.11,23.11,0,0,1-1.32,8.11,18.58,18.58,0,0,1-3.84,6.25,20.13,20.13,0,0,1-7,4.77,23.89,23.89,0,0,1-9.31,1.71A23.55,23.55,0,0,1,311.56,90a23,23,0,0,1-7.3-4.65,21.68,21.68,0,0,1-4.92-7.09,23.6,23.6,0,0,1,0-18.08,21.79,21.79,0,0,1,4.92-7.09,23,23,0,0,1,7.3-4.65,23.55,23.55,0,0,1,8.86-1.68,21.66,21.66,0,0,1,16.64,7L330.69,60a15.85,15.85,0,0,0-4.47-3.21,14,14,0,0,0-5.92-1.11,13.62,13.62,0,0,0-5.19,1,13.19,13.19,0,0,0-4.27,2.76A12.67,12.67,0,0,0,308,63.65a15.22,15.22,0,0,0,0,11.11A12.51,12.51,0,0,0,310.87,79a13.46,13.46,0,0,0,4.33,2.76,13.82,13.82,0,0,0,5.28,1,12.78,12.78,0,0,0,8.83-3,10.71,10.71,0,0,0,1.89-2.25,13.11,13.11,0,0,0,1.41-3H320.18Z"/><path class="cls-1" d="M369.13,91.66a23.08,23.08,0,0,1-9-1.74A22.16,22.16,0,0,1,353,85.15,21.84,21.84,0,0,1,348.2,78a23.65,23.65,0,0,1,0-17.66A21.8,21.8,0,0,1,353,53.26a22,22,0,0,1,7.17-4.78,24.2,24.2,0,0,1,18,0,21.85,21.85,0,0,1,11.92,11.89,23.53,23.53,0,0,1,0,17.66,22,22,0,0,1-4.74,7.12,22.21,22.21,0,0,1-7.18,4.77A23,23,0,0,1,369.13,91.66Zm0-8.88a13.85,13.85,0,0,0,5.2-1,12.3,12.3,0,0,0,4.23-2.76,12.91,12.91,0,0,0,2.82-4.29,15.49,15.49,0,0,0,0-11.11,12.85,12.85,0,0,0-2.82-4.3,12.3,12.3,0,0,0-4.23-2.76,14.62,14.62,0,0,0-10.42,0,12.32,12.32,0,0,0-4.21,2.76,12.85,12.85,0,0,0-2.82,4.3,15.64,15.64,0,0,0,0,11.11,12.91,12.91,0,0,0,2.82,4.29,12.32,12.32,0,0,0,4.21,2.76A13.74,13.74,0,0,0,369.13,82.78Z"/><path class="cls-1" d="M112.05,50.71H112a43,43,0,1,0-84.69,0h-.09l.15.35A43,43,0,0,0,31.4,62.82c2.65,5.11,5.19,10.28,7.42,15.59l30.8,73.37,30.8-73.37c2.23-5.31,4.78-10.48,7.43-15.59a43,43,0,0,0,4.06-11.76Z"/><path class="cls-1" d="M50.18,163.05c-13.67,0-29.84-5-48.33-14.84A3.5,3.5,0,0,1,5.15,142c26.38,14.1,47.2,17.6,61.9,10.39,6.48-3.17,11.23-8.09,15.82-12.85,6.46-6.69,13.14-13.6,24-14.64,10.11-1,20.6,3.33,31.16,12.78a3.5,3.5,0,0,1-4.67,5.21c-9-8.09-17.73-11.8-25.82-11-8.34.8-13.6,6.24-19.68,12.55-4.78,4.94-10.2,10.55-17.78,14.27A44.79,44.79,0,0,1,50.18,163.05Z"/><path class="cls-2" d="M69.6,60H55.68c-.75,0-.75,0-.75.75,0,.57,0,1.14,0,1.71A1.35,1.35,0,0,1,53.58,64c-1.7,0-3.4,0-5.11,0-.93,0-1.42-.62-1.42-1.64,0-2,0-4,0-6,0-2.69,0-5.38,0-8.07a6.23,6.23,0,0,1,1.66-4.35c.52-.58,1-1.19,1.54-1.75.3-.33.18-.41-.17-.5-.81-.2-1.61-.43-2.41-.66a1.69,1.69,0,0,1-1.38-1.81,1.65,1.65,0,0,1,1.82-1.43c.76,0,1.51,0,2.27,0a2.12,2.12,0,0,1,1.73.7c.34.37.51.31.71-.14.82-1.89,1.78-3.71,2.76-5.53A5.35,5.35,0,0,1,60,30a97,97,0,0,1,14.46-.37,37.22,37.22,0,0,1,5.76.57,4.3,4.3,0,0,1,3,2,46.71,46.71,0,0,1,3.14,6c.29.64.29.65.81.17a2.16,2.16,0,0,1,1.54-.61h2.56A1.62,1.62,0,0,1,91.76,41c-.85.26-1.7.49-2.57.71-.4.11-.45.22-.15.54.54.57,1,1.19,1.57,1.79a6.1,6.1,0,0,1,1.59,4.2V62.14c0,1.35-.48,1.83-1.8,1.84H86c-1.22,0-1.71-.52-1.71-1.74,0-.55,0-1.1,0-1.65s-.15-.56-.56-.55c-1.59,0-3.18,0-4.78,0Zm2-28.13c-2.27-.18-4.63,0-7,.06a26.92,26.92,0,0,0-5.3.54,1.63,1.63,0,0,0-1.15.82c-1.3,2.21-2.43,4.5-3.53,6.8-.26.55-.25.58.38.52,3.83-.36,7.66-.61,11.5-.68a152.24,152.24,0,0,1,17.74.67c.71.07.72,0,.4-.62-1-2.11-2.08-4.21-3.22-6.26a2.42,2.42,0,0,0-1.92-1.37A55.65,55.65,0,0,0,71.56,31.91Zm13.87,19a3.82,3.82,0,0,0,2.51-.72,2.72,2.72,0,0,0-1-4.81,3.56,3.56,0,0,0-4.35,3.32,1.77,1.77,0,0,0,1.16,1.94A3.63,3.63,0,0,0,85.43,50.9Zm-31.61,0c.32,0,.65,0,1-.06a2,2,0,0,0,1.9-2.29,3.6,3.6,0,0,0-3.55-3.31,2.81,2.81,0,0,0-2.8,2.05,2.65,2.65,0,0,0,1.41,3.14A4.29,4.29,0,0,0,53.82,50.92Zm15.79,1.46H65.13c-.68,0-.76.09-.77.75,0,.37,0,.75,0,1.13,0,.54.19.75.73.74,1.41,0,2.83,0,4.25,0h4.77c.69,0,.76-.08.77-.75V53.18c0-.71-.08-.79-.78-.8Z"/></g></g></svg>