<svg xmlns="http://www.w3.org/2000/svg" viewBox="0 0 139.25 163.05"><defs><style>.cls-1{fill:#2d3a96;}.cls-2{fill:#fff;}</style></defs><g id="Layer_2" data-name="Layer 2"><g id="Layer_1-2" data-name="Layer 1"><path class="cls-1" d="M112.05,50.71H112a43,43,0,1,0-84.69,0h-.09l.15.35A43,43,0,0,0,31.4,62.82c2.65,5.11,5.19,10.28,7.42,15.59l30.8,73.37,30.8-73.37c2.23-5.31,4.78-10.48,7.43-15.59a43,43,0,0,0,4.06-11.76Z"/><path class="cls-1" d="M50.18,163.05c-13.67,0-29.84-5-48.33-14.84A3.5,3.5,0,0,1,5.15,142c26.38,14.1,47.2,17.6,61.9,10.39,6.48-3.17,11.23-8.09,15.82-12.85,6.46-6.69,13.14-13.6,24-14.64,10.11-1,20.6,3.33,31.16,12.78a3.5,3.5,0,0,1-4.67,5.21c-9-8.09-17.73-11.8-25.82-11-8.34.8-13.6,6.24-19.68,12.55-4.78,4.94-10.2,10.55-17.78,14.27A44.79,44.79,0,0,1,50.18,163.05Z"/><path class="cls-2" d="M69.6,60H55.68c-.75,0-.75,0-.75.75,0,.57,0,1.14,0,1.71A1.35,1.35,0,0,1,53.58,64c-1.7,0-3.4,0-5.11,0-.93,0-1.42-.62-1.42-1.64,0-2,0-4,0-6,0-2.69,0-5.38,0-8.07a6.23,6.23,0,0,1,1.66-4.35c.52-.58,1-1.19,1.54-1.75.3-.33.18-.41-.17-.5-.81-.2-1.61-.43-2.41-.66a1.69,1.69,0,0,1-1.38-1.81,1.65,1.65,0,0,1,1.82-1.43c.76,0,1.51,0,2.27,0a2.12,2.12,0,0,1,1.73.7c.34.37.51.31.71-.14.82-1.89,1.78-3.71,2.76-5.53A5.35,5.35,0,0,1,60,30a97,97,0,0,1,14.46-.37,37.22,37.22,0,0,1,5.76.57,4.3,4.3,0,0,1,3,2,46.71,46.71,0,0,1,3.14,6c.29.64.29.65.81.17a2.16,2.16,0,0,1,1.54-.61h2.56A1.62,1.62,0,0,1,91.76,41c-.85.26-1.7.49-2.57.71-.4.11-.45.22-.15.54.54.57,1,1.19,1.57,1.79a6.1,6.1,0,0,1,1.59,4.2V62.14c0,1.35-.48,1.83-1.8,1.84H86c-1.22,0-1.71-.52-1.71-1.74,0-.55,0-1.1,0-1.65s-.15-.56-.56-.55c-1.59,0-3.18,0-4.78,0Zm2-28.13c-2.27-.18-4.63,0-7,.06a26.92,26.92,0,0,0-5.3.54,1.63,1.63,0,0,0-1.15.82c-1.3,2.21-2.43,4.5-3.53,6.8-.26.55-.25.58.38.52,3.83-.36,7.66-.61,11.5-.68a152.24,152.24,0,0,1,17.74.67c.71.07.72,0,.4-.62-1-2.11-2.08-4.21-3.22-6.26a2.42,2.42,0,0,0-1.92-1.37A55.65,55.65,0,0,0,71.56,31.91Zm13.87,19a3.82,3.82,0,0,0,2.51-.72,2.72,2.72,0,0,0-1-4.81,3.56,3.56,0,0,0-4.35,3.32,1.77,1.77,0,0,0,1.16,1.94A3.63,3.63,0,0,0,85.43,50.9Zm-31.61,0c.32,0,.65,0,1-.06a2,2,0,0,0,1.9-2.29,3.6,3.6,0,0,0-3.55-3.31,2.81,2.81,0,0,0-2.8,2.05,2.65,2.65,0,0,0,1.41,3.14A4.29,4.29,0,0,0,53.82,50.92Zm15.79,1.46H65.13c-.68,0-.76.09-.77.75,0,.37,0,.75,0,1.13,0,.54.19.75.73.74,1.41,0,2.83,0,4.25,0h4.77c.69,0,.76-.08.77-.75V53.18c0-.71-.08-.79-.78-.8Z"/></g></g></svg>