<svg width="174" height="50" viewBox="0 0 174 50" fill="none" xmlns="http://www.w3.org/2000/svg">
<path d="M124.195 28.1719C123.721 28.1719 123.315 28.0052 122.977 27.6719C122.638 27.3385 122.471 26.9323 122.477 26.4531C122.471 25.9844 122.638 25.5833 122.977 25.25C123.315 24.9167 123.721 24.75 124.195 24.75C124.654 24.75 125.052 24.9167 125.391 25.25C125.734 25.5833 125.909 25.9844 125.914 26.4531C125.909 26.7708 125.826 27.0599 125.664 27.3203C125.508 27.5807 125.299 27.7891 125.039 27.9453C124.784 28.0964 124.503 28.1719 124.195 28.1719ZM134.068 28.2344C132.87 28.2344 131.842 27.9714 130.982 27.4453C130.128 26.9193 129.469 26.1927 129.006 25.2656C128.548 24.3333 128.318 23.2604 128.318 22.0469C128.318 20.8281 128.553 19.7526 129.021 18.8203C129.49 17.8828 130.152 17.1536 131.006 16.6328C131.865 16.1068 132.881 15.8438 134.053 15.8438C135.027 15.8438 135.889 16.0234 136.639 16.3828C137.394 16.737 137.995 17.2396 138.443 17.8906C138.891 18.5365 139.146 19.2917 139.209 20.1562H136.506C136.396 19.5781 136.136 19.0964 135.725 18.7109C135.318 18.3203 134.774 18.125 134.092 18.125C133.514 18.125 133.006 18.2812 132.568 18.5937C132.131 18.901 131.79 19.3437 131.545 19.9219C131.305 20.5 131.186 21.1927 131.186 22C131.186 22.8177 131.305 23.5208 131.545 24.1094C131.785 24.6927 132.12 25.1432 132.553 25.4609C132.99 25.7734 133.503 25.9297 134.092 25.9297C134.508 25.9297 134.881 25.8516 135.209 25.6953C135.542 25.5339 135.821 25.3021 136.045 25C136.269 24.6979 136.423 24.3307 136.506 23.8984H139.209C139.141 24.7474 138.891 25.5 138.459 26.1562C138.027 26.8073 137.438 27.3177 136.693 27.6875C135.949 28.0521 135.074 28.2344 134.068 28.2344ZM146.766 28.2344C145.594 28.2344 144.578 27.9766 143.719 27.4609C142.859 26.9453 142.193 26.224 141.719 25.2969C141.25 24.3698 141.016 23.2865 141.016 22.0469C141.016 20.8073 141.25 19.7214 141.719 18.7891C142.193 17.8568 142.859 17.1328 143.719 16.6172C144.578 16.1016 145.594 15.8438 146.766 15.8438C147.938 15.8438 148.953 16.1016 149.813 16.6172C150.672 17.1328 151.336 17.8568 151.805 18.7891C152.279 19.7214 152.516 20.8073 152.516 22.0469C152.516 23.2865 152.279 24.3698 151.805 25.2969C151.336 26.224 150.672 26.9453 149.813 27.4609C148.953 27.9766 147.938 28.2344 146.766 28.2344ZM146.781 25.9687C147.417 25.9687 147.948 25.7943 148.375 25.4453C148.802 25.0911 149.12 24.6172 149.328 24.0234C149.542 23.4297 149.648 22.7682 149.648 22.0391C149.648 21.3047 149.542 20.6406 149.328 20.0469C149.12 19.4479 148.802 18.9714 148.375 18.6172C147.948 18.263 147.417 18.0859 146.781 18.0859C146.13 18.0859 145.589 18.263 145.156 18.6172C144.729 18.9714 144.409 19.4479 144.195 20.0469C143.987 20.6406 143.883 21.3047 143.883 22.0391C143.883 22.7682 143.987 23.4297 144.195 24.0234C144.409 24.6172 144.729 25.0911 145.156 25.4453C145.589 25.7943 146.13 25.9687 146.781 25.9687ZM154.916 28V16H157.619V18.0391H157.76C158.01 17.3516 158.424 16.8151 159.002 16.4297C159.58 16.0391 160.27 15.8438 161.072 15.8438C161.885 15.8438 162.57 16.0417 163.127 16.4375C163.689 16.8281 164.085 17.362 164.314 18.0391H164.439C164.705 17.3724 165.153 16.8411 165.783 16.4453C166.419 16.0443 167.171 15.8438 168.041 15.8438C169.145 15.8438 170.046 16.1927 170.744 16.8906C171.442 17.5885 171.791 18.6068 171.791 19.9453V28H168.955V20.3828C168.955 19.638 168.757 19.0937 168.361 18.75C167.965 18.401 167.481 18.2266 166.908 18.2266C166.226 18.2266 165.692 18.4401 165.307 18.8672C164.926 19.2891 164.736 19.8385 164.736 20.5156V28H161.963V20.2656C161.963 19.6458 161.775 19.151 161.4 18.7812C161.031 18.4115 160.546 18.2266 159.947 18.2266C159.541 18.2266 159.171 18.3307 158.838 18.5391C158.505 18.7422 158.239 19.0312 158.041 19.4062C157.843 19.776 157.744 20.2083 157.744 20.7031V28H154.916Z" fill="white"/>
<path d="M46.4625 14.6319H49.3415V25.092H54.8546V27.8221H46.4625V14.6319Z" fill="white"/>
<path d="M65.0537 25.6442C64.6249 26.411 64.043 27.0245 63.3079 27.454C62.5728 27.8834 61.7153 28.1288 60.7045 28.1288C60.0001 28.1288 59.3569 28.0061 58.775 27.7607C58.1931 27.5153 57.6724 27.1779 57.213 26.7485C56.7842 26.319 56.4166 25.7975 56.1716 25.2147C55.9266 24.6319 55.8041 23.9877 55.8041 23.2822C55.8041 22.638 55.9266 22.0245 56.1716 21.4417C56.4166 20.8589 56.7535 20.3374 57.1823 19.908C57.6111 19.4785 58.1318 19.1104 58.7137 18.865C59.2957 18.6196 59.9388 18.4662 60.6127 18.4662C61.3477 18.4662 62.0215 18.5889 62.6035 18.8343C63.1854 19.0797 63.6448 19.4172 64.043 19.8466C64.4105 20.2761 64.7168 20.7669 64.9006 21.3497C65.0843 21.9325 65.2068 22.546 65.2068 23.1902C65.2068 23.2822 65.2068 23.3742 65.2068 23.4969C65.2068 23.5889 65.1762 23.681 65.1762 23.7423C65.1762 23.8343 65.1456 23.8957 65.1456 23.9877H58.4993C58.6218 24.5705 58.8975 25 59.3263 25.2761C59.7551 25.5521 60.2145 25.6748 60.7352 25.6748C61.2558 25.6748 61.6846 25.5521 62.0215 25.3374C62.3584 25.1227 62.6341 24.8466 62.8179 24.4785L65.0537 25.6442ZM62.6035 22.1166C62.5728 21.9632 62.5116 21.8098 62.4197 21.6258C62.3278 21.4417 62.2053 21.2883 62.0215 21.1656C61.8684 21.0123 61.654 20.9202 61.409 20.8282C61.164 20.7362 60.8883 20.6748 60.6127 20.6748C60.1839 20.6748 59.7857 20.7975 59.4182 21.0429C59.0506 21.2883 58.775 21.6564 58.6218 22.1166H62.6035Z" fill="white"/>
<path d="M67.4426 21.1043H65.85V18.773H67.4426V16.0123H70.1991V18.773H72.435V21.1043H70.1991V24.2638C70.1991 24.4785 70.2298 24.6626 70.2604 24.8159C70.3216 25 70.3829 25.1227 70.5054 25.2454C70.6892 25.3988 70.9342 25.4908 71.2099 25.4908C71.3936 25.4908 71.5774 25.4601 71.6999 25.4294C71.8224 25.3681 71.9449 25.3067 72.0368 25.2454L72.8025 27.638C72.4962 27.7914 72.1287 27.9141 71.7612 27.9755C71.3936 28.0675 70.9955 28.0982 70.5973 28.0982C69.6172 28.0982 68.8515 27.8221 68.3002 27.2393C67.9939 26.9325 67.7795 26.5644 67.6264 26.1043C67.4733 25.6442 67.3814 25.1534 67.3814 24.6319V21.1043H67.4426Z" fill="white"/>
<path d="M74.1808 19.1718L75.1302 17.73C74.8239 17.6073 74.5789 17.3926 74.3952 17.0859C74.2114 16.8098 74.1195 16.4724 74.1195 16.1043C74.1195 15.6135 74.3033 15.184 74.6402 14.8466C74.9771 14.5092 75.4059 14.3251 75.8959 14.3251C76.386 14.3251 76.8148 14.5092 77.1517 14.8466C77.4886 15.184 77.6723 15.6135 77.6723 16.1043C77.6723 16.319 77.6417 16.5337 77.5805 16.6871C77.5192 16.8711 77.3967 17.0552 77.2435 17.2699L75.4365 19.9693L74.1808 19.1718Z" fill="white"/>
<path d="M82.3584 28.1288C81.7459 28.1288 81.1946 28.0675 80.7045 27.9141C80.2145 27.7607 79.8163 27.5767 79.4488 27.3313C79.0813 27.0859 78.8056 26.8098 78.5606 26.5031C78.3156 26.1963 78.1624 25.8589 78.0399 25.5521L80.5208 24.5092C80.7045 24.9386 80.9189 25.2454 81.2252 25.4294C81.5315 25.6135 81.899 25.7055 82.3278 25.7055C82.6953 25.7055 82.971 25.6442 83.1854 25.5215C83.3998 25.3988 83.4917 25.2454 83.4917 25.0613C83.4917 24.8466 83.3998 24.6932 83.1854 24.5705C83.0016 24.4478 82.6647 24.3558 82.2359 24.2331L81.0108 23.9877C80.7045 23.9264 80.4289 23.8343 80.1226 23.681C79.8163 23.5583 79.5407 23.3742 79.265 23.1595C78.9894 22.9448 78.8056 22.6687 78.6525 22.362C78.4993 22.0552 78.4075 21.7178 78.4075 21.319C78.4075 20.8896 78.4993 20.4908 78.6831 20.1534C78.8669 19.8159 79.1425 19.5092 79.4794 19.2638C79.8163 19.0184 80.2145 18.8343 80.6433 18.681C81.1027 18.5583 81.5928 18.4662 82.1441 18.4662C83.0629 18.4662 83.8898 18.6196 84.5637 18.957C85.2375 19.2945 85.7581 19.8159 86.095 20.5828L83.7367 21.5644C83.5836 21.2577 83.3385 21.0123 83.0629 20.8589C82.7872 20.7055 82.481 20.6442 82.1747 20.6442C81.8684 20.6442 81.5927 20.7055 81.409 20.7975C81.2252 20.9202 81.1027 21.0429 81.1027 21.1963C81.1027 21.3804 81.1946 21.5031 81.409 21.6258C81.6234 21.7178 81.8684 21.8098 82.1441 21.9018L83.5529 22.2393C84.4718 22.454 85.1456 22.8221 85.605 23.3129C86.0644 23.8037 86.2788 24.3865 86.2788 25.0307C86.2788 25.4294 86.1869 25.8282 86.0032 26.1963C85.8194 26.5644 85.5437 26.9018 85.2068 27.1779C84.8699 27.454 84.4411 27.6994 83.9511 27.8528C83.4917 28.0368 82.971 28.1288 82.3584 28.1288Z" fill="white"/>
<path d="M98.0705 20.4908H104.564C104.594 20.6442 104.625 20.8282 104.655 21.0736C104.686 21.319 104.686 21.5337 104.686 21.7484C104.686 22.6687 104.564 23.4969 104.288 24.2331C104.012 24.9693 103.614 25.5828 103.124 26.1349C102.542 26.7484 101.838 27.2392 100.98 27.6073C100.153 27.9448 99.2037 28.1288 98.1317 28.1288C97.1822 28.1288 96.2634 27.9448 95.4058 27.6073C94.5482 27.2699 93.8132 26.7791 93.17 26.1656C92.5268 25.5521 92.0368 24.8466 91.6692 23.9877C91.3017 23.1595 91.1179 22.2086 91.1179 21.227C91.1179 20.2147 91.3017 19.2945 91.6692 18.4662C92.0368 17.638 92.5268 16.9018 93.17 16.2883C93.8132 15.6748 94.5482 15.2147 95.4058 14.8466C96.2634 14.5092 97.1516 14.3251 98.1317 14.3251C99.2343 14.3251 100.214 14.5092 101.041 14.908C101.868 15.2761 102.603 15.7975 103.216 16.4724L101.256 18.3742C100.827 17.9448 100.368 17.6073 99.8775 17.3926C99.3874 17.1779 98.7749 17.0552 98.0705 17.0552C97.5191 17.0552 96.9678 17.1472 96.4778 17.3619C95.9878 17.5767 95.559 17.8527 95.1608 18.2208C94.7933 18.5889 94.487 19.0184 94.2726 19.5399C94.0582 20.0613 93.9357 20.6135 93.9357 21.2577C93.9357 21.9018 94.0582 22.454 94.2726 22.9754C94.487 23.4969 94.7933 23.9264 95.1608 24.2945C95.5283 24.6626 95.9878 24.9386 96.4778 25.1534C96.9678 25.3681 97.5191 25.4601 98.1011 25.4601C99.2343 25.4601 100.123 25.1534 100.796 24.5705C101.011 24.3865 101.194 24.1411 101.378 23.865C101.562 23.5889 101.715 23.2822 101.807 22.9448H98.0092V20.4908H98.0705Z" fill="white"/>
<path d="M113.048 28.1288C112.067 28.1288 111.149 27.9448 110.291 27.6073C109.433 27.2392 108.698 26.7484 108.086 26.1349C107.473 25.5214 106.983 24.7852 106.646 23.957C106.309 23.1288 106.126 22.2086 106.126 21.2576C106.126 20.276 106.309 19.3865 106.646 18.5583C106.983 17.73 107.473 16.9938 108.086 16.3803C108.698 15.7668 109.433 15.276 110.291 14.9079C111.149 14.5398 112.067 14.3865 113.048 14.3865C114.028 14.3865 114.946 14.5705 115.804 14.9079C116.662 15.276 117.397 15.7668 118.009 16.3803C118.622 16.9938 119.112 17.73 119.449 18.5583C119.786 19.3865 119.969 20.3067 119.969 21.2576C119.969 22.2392 119.786 23.1288 119.449 23.957C119.112 24.7852 118.622 25.5214 118.009 26.1349C117.397 26.7484 116.662 27.2392 115.804 27.6073C114.977 27.9448 114.058 28.1288 113.048 28.1288ZM113.048 25.3987C113.599 25.3987 114.15 25.3067 114.64 25.092C115.13 24.9079 115.559 24.6012 115.927 24.2331C116.294 23.865 116.57 23.4356 116.784 22.9141C116.999 22.3926 117.09 21.8405 117.09 21.1963C117.09 20.5521 116.999 20 116.784 19.4785C116.57 18.957 116.294 18.5276 115.927 18.1595C115.559 17.7914 115.13 17.5153 114.64 17.3006C114.15 17.1165 113.599 16.9938 113.048 16.9938C112.466 16.9938 111.945 17.0859 111.455 17.3006C110.965 17.4846 110.536 17.7914 110.168 18.1595C109.801 18.5276 109.525 18.957 109.311 19.4785C109.097 20 109.005 20.5521 109.005 21.1963C109.005 21.8405 109.097 22.3926 109.311 22.9141C109.525 23.4356 109.801 23.865 110.168 24.2331C110.536 24.6012 110.965 24.8773 111.455 25.092C111.945 25.3067 112.466 25.3987 113.048 25.3987Z" fill="white"/>
<path d="M34.3338 15.5521C34.4563 14.7853 34.5176 13.9877 34.5176 13.1902C34.5176 5.88957 28.6064 0 21.3476 0C14.0888 0 8.17761 5.92024 8.17761 13.1902C8.17761 13.9877 8.23887 14.7853 8.39201 15.5521H8.36138L8.39201 15.6748C8.63703 16.9632 9.06582 18.1595 9.64775 19.2945C10.4747 20.8589 11.2404 22.454 11.9142 24.0798L21.3476 46.5951L30.781 24.0798C31.4548 22.454 32.2511 20.8589 33.0474 19.2945C33.6294 18.1902 34.0582 16.9632 34.3032 15.6748L34.3338 15.5521Z" fill="white"/>
<path d="M15.3751 50C11.1791 50 6.24803 48.4663 0.58187 45.4601C0.0611957 45.1841 -0.122571 44.5399 0.153079 44.0184C0.42873 43.4969 1.07192 43.3129 1.59259 43.589C9.67835 47.9141 16.0489 48.9877 20.5512 46.7792C22.5421 45.7976 23.9816 44.2945 25.3904 42.8528C27.3813 40.7976 29.4027 38.681 32.7718 38.3742C35.8652 38.0675 39.0811 39.3865 42.3277 42.3006C42.7565 42.6994 42.8177 43.3742 42.4195 43.8037C42.0214 44.2331 41.3476 44.2945 40.9188 43.8957C38.1623 41.4111 35.4976 40.2761 33.0168 40.5215C30.4747 40.7669 28.8514 42.4233 26.9831 44.3558C25.513 45.8589 23.8591 47.6074 21.5313 48.7423C19.663 49.5706 17.6416 50 15.3751 50Z" fill="white"/>
<path d="M21.3169 18.4049C19.908 18.4049 18.4685 18.4049 17.0596 18.4049C16.8452 18.4049 16.8452 18.4049 16.8452 18.6503C16.8452 18.8344 16.8452 18.9877 16.8452 19.1718C16.8452 19.4172 16.6921 19.6012 16.447 19.6319C15.9264 19.6319 15.4057 19.6319 14.885 19.6319C14.6094 19.6319 14.4562 19.4479 14.4562 19.1411C14.4562 18.5276 14.4562 17.9141 14.4562 17.3006C14.4562 16.4724 14.4562 15.6442 14.4562 14.816C14.4562 14.2945 14.6094 13.865 14.9769 13.4969C15.13 13.3129 15.2832 13.1288 15.4363 12.9448C15.5282 12.8528 15.4976 12.8221 15.3751 12.7914C15.13 12.7301 14.885 12.6687 14.64 12.5767C14.3644 12.4847 14.1806 12.27 14.2112 12.0246C14.2418 11.7485 14.4562 11.5951 14.7625 11.5951C15.0075 11.5951 15.2219 11.5951 15.467 11.5951C15.6814 11.5951 15.8651 11.6565 15.9876 11.8098C16.0795 11.9325 16.1408 11.9019 16.202 11.7792C16.447 11.1963 16.7533 10.6442 17.0596 10.092C17.3659 9.53989 17.8253 9.29449 18.4379 9.20247C19.908 9.01842 21.3781 9.04909 22.8789 9.07977C23.4608 9.11044 24.0734 9.14112 24.6553 9.26382C25.0535 9.32517 25.3598 9.53989 25.5742 9.87731C25.9417 10.4601 26.248 11.1043 26.5236 11.7178C26.6155 11.9019 26.6155 11.9325 26.7686 11.7792C26.8912 11.6565 27.0443 11.5951 27.2281 11.5951C27.5037 11.5951 27.7487 11.5951 28.0244 11.5951C28.3 11.5951 28.4838 11.7792 28.5451 12.0246C28.5757 12.27 28.4225 12.4847 28.1775 12.5767C27.9325 12.6687 27.6568 12.7301 27.3812 12.7914C27.2587 12.8221 27.2281 12.8528 27.3199 12.9448C27.4731 13.1288 27.6262 13.3129 27.81 13.4969C28.1469 13.865 28.3 14.2945 28.3 14.7853C28.3 16.1963 28.3 17.638 28.3 19.0491C28.3 19.4479 28.1469 19.6012 27.7487 19.6012C27.2893 19.6012 26.8605 19.6012 26.4011 19.6012C26.0336 19.6012 25.8804 19.4479 25.8804 19.0798C25.8804 18.9264 25.8804 18.7423 25.8804 18.589C25.8804 18.4663 25.8192 18.4049 25.6967 18.4049C25.2066 18.4049 24.7166 18.4049 24.2265 18.4049C23.2158 18.4049 22.2663 18.4049 21.3169 18.4049ZM21.9294 9.78529C21.225 9.72394 20.5206 9.78529 19.7855 9.81596C19.2342 9.81596 18.6829 9.84664 18.1622 9.96934C18.0091 10 17.8866 10.092 17.8253 10.2147C17.4271 10.8896 17.0902 11.5951 16.7533 12.3006C16.6614 12.454 16.6921 12.4847 16.8758 12.454C18.0397 12.3313 19.2342 12.27 20.398 12.2393C22.2051 12.2086 24.0121 12.27 25.8192 12.454C26.0336 12.4847 26.0336 12.454 25.9417 12.27C25.6354 11.6258 25.2985 10.9816 24.9616 10.3374C24.8391 10.092 24.6553 9.96934 24.3797 9.90799C23.5527 9.81596 22.7564 9.78529 21.9294 9.78529ZM26.1561 15.6135C26.4011 15.6135 26.6768 15.5828 26.9218 15.3988C27.2281 15.1841 27.2893 14.8773 27.2281 14.5399C27.1668 14.2025 26.9218 14.0184 26.6155 13.9264C25.9417 13.773 25.3291 14.2638 25.2985 14.9387C25.2679 15.2454 25.3904 15.3988 25.666 15.5215C25.7885 15.6135 25.9723 15.6135 26.1561 15.6135ZM16.4777 15.6135C16.5696 15.6135 16.6614 15.6135 16.784 15.5828C17.1821 15.5215 17.3965 15.2761 17.3659 14.8773C17.3046 14.2945 16.8758 13.865 16.2633 13.865C15.8651 13.865 15.4976 14.1104 15.4057 14.5092C15.2832 14.908 15.467 15.2761 15.8345 15.4601C16.0489 15.5828 16.2633 15.6135 16.4777 15.6135ZM21.3169 16.0736C20.8575 16.0736 20.398 16.0736 19.9386 16.0736C19.7242 16.0736 19.6936 16.1043 19.6936 16.2884C19.6936 16.4111 19.6936 16.5338 19.6936 16.6258C19.6936 16.7792 19.7549 16.8405 19.908 16.8405C20.3368 16.8405 20.7656 16.8405 21.225 16.8405C21.715 16.8405 22.2051 16.8405 22.6951 16.8405C22.9095 16.8405 22.9402 16.8098 22.9402 16.6258C22.9402 16.5031 22.9402 16.4111 22.9402 16.2884C22.9402 16.0736 22.9095 16.043 22.6951 16.043C22.2357 16.0736 21.7763 16.0736 21.3169 16.0736Z" fill="#2D3A96"/>
</svg>
